<svg width="333" height="134" viewBox="0 0 333 134" fill="none" xmlns="http://www.w3.org/2000/svg">
<path d="M33.8672 128H17.9883V56.3398H1.58203V42.3359H50.2734V56.3398H33.8672V128ZM62.3438 128V42.3359H77.3438V128H62.3438ZM126.035 128L109.746 55.0508H109.102C109.844 60.6758 110.215 65.832 110.215 70.5195V128H95.4492V42.3359H119.941L134.59 109.66H135.059L149.59 42.3359H174.434V128H159.316V69.9336C159.316 65.1289 159.59 60.207 160.137 55.168H159.668L143.438 128H126.035Z" fill="white"/>
<path d="M199.056 60H195.748V45.0708H192.33V42.1533H202.474V45.0708H199.056V60ZM208.357 60.2441C206.657 60.2441 205.314 59.6419 204.329 58.4375C203.353 57.2249 202.864 55.5119 202.864 53.2983C202.864 51.0522 203.308 49.2985 204.195 48.0371C205.082 46.7757 206.319 46.145 207.906 46.145C209.387 46.145 210.555 46.6862 211.409 47.7686C212.264 48.8428 212.691 50.3524 212.691 52.2974V54.0308H206.16C206.185 55.2433 206.433 56.1466 206.905 56.7407C207.377 57.3267 208.028 57.6196 208.858 57.6196C209.916 57.6196 210.998 57.29 212.105 56.6309V59.3042C211.063 59.9308 209.814 60.2441 208.357 60.2441ZM207.881 48.6475C207.417 48.6475 207.035 48.8957 206.734 49.3921C206.433 49.8804 206.258 50.6413 206.209 51.6748H209.505C209.489 50.682 209.338 49.9292 209.053 49.4165C208.768 48.9038 208.378 48.6475 207.881 48.6475ZM219.332 60.2441C217.712 60.2441 216.479 59.6541 215.633 58.4741C214.786 57.2941 214.363 55.5607 214.363 53.2739C214.363 50.8813 214.762 49.0951 215.56 47.915C216.365 46.735 217.606 46.145 219.283 46.145C219.787 46.145 220.316 46.2183 220.87 46.3647C221.423 46.5112 221.919 46.7228 222.359 46.9995L221.431 49.5264C220.756 49.1276 220.158 48.9282 219.637 48.9282C218.945 48.9282 218.444 49.2904 218.135 50.0146C217.834 50.7308 217.684 51.8091 217.684 53.2495C217.684 54.6574 217.834 55.7113 218.135 56.4111C218.436 57.1029 218.929 57.4487 219.612 57.4487C220.426 57.4487 221.277 57.1639 222.164 56.5942V59.4507C221.309 59.9797 220.365 60.2441 219.332 60.2441ZM230.892 60V51.8945C230.892 49.9007 230.391 48.9038 229.39 48.9038C228.641 48.9038 228.117 49.2985 227.815 50.0879C227.514 50.8691 227.364 51.9963 227.364 53.4692V60H224.117V41.0059H227.364V45.2295C227.364 45.7747 227.315 46.7472 227.217 48.147H227.388C228.039 46.8123 229.04 46.145 230.391 46.145C231.636 46.145 232.576 46.5682 233.211 47.4146C233.846 48.2528 234.163 49.4897 234.163 51.1255V60H230.892ZM243.562 60V51.8945C243.562 50.9098 243.444 50.1652 243.208 49.6606C242.972 49.1561 242.59 48.9038 242.061 48.9038C241.361 48.9038 240.848 49.2537 240.523 49.9536C240.197 50.6453 240.035 51.8172 240.035 53.4692V60H236.788V46.4014H239.363L239.754 48.147H239.961C240.254 47.5203 240.674 47.0321 241.219 46.6821C241.764 46.3241 242.403 46.145 243.135 46.145C244.372 46.145 245.296 46.5682 245.906 47.4146C246.525 48.2609 246.834 49.4979 246.834 51.1255V60H243.562ZM252.73 60H249.483V46.4014H252.73V60ZM249.349 42.8491C249.349 42.312 249.503 41.8888 249.812 41.5796C250.13 41.2622 250.569 41.1035 251.131 41.1035C251.66 41.1035 252.083 41.2622 252.4 41.5796C252.718 41.8888 252.876 42.312 252.876 42.8491C252.876 43.4025 252.714 43.8338 252.388 44.1431C252.063 44.4442 251.644 44.5947 251.131 44.5947C250.594 44.5947 250.162 44.4442 249.837 44.1431C249.511 43.8338 249.349 43.4025 249.349 42.8491ZM259.09 60.2441C257.82 60.2441 256.827 59.6257 256.111 58.3887C255.395 57.1517 255.037 55.4305 255.037 53.2251C255.037 51.0034 255.387 49.27 256.087 48.0249C256.795 46.7716 257.767 46.145 259.004 46.145C259.639 46.145 260.188 46.2996 260.652 46.6089C261.116 46.9181 261.535 47.4308 261.91 48.147H262.081L262.435 46.4014H265.181V66.0059H261.934V60.2808C261.934 59.9878 261.983 59.3042 262.081 58.23H261.958C261.617 58.9299 261.21 59.4425 260.738 59.7681C260.266 60.0854 259.716 60.2441 259.09 60.2441ZM260.079 57.522C260.722 57.522 261.181 57.229 261.458 56.6431C261.743 56.049 261.893 55.0684 261.91 53.7012V53.2495C261.91 51.7521 261.767 50.6616 261.482 49.978C261.198 49.2944 260.73 48.9526 260.079 48.9526C258.947 48.9526 258.382 50.3931 258.382 53.2739C258.382 54.7144 258.516 55.7845 258.785 56.4844C259.061 57.1761 259.493 57.522 260.079 57.522ZM275.264 60L274.861 58.2544H274.69C274.389 58.8729 273.958 59.3612 273.396 59.7192C272.843 60.0692 272.208 60.2441 271.492 60.2441C270.271 60.2441 269.348 59.8291 268.721 58.999C268.095 58.1689 267.781 56.9279 267.781 55.2759V46.4014H271.065V54.4946C271.065 55.4875 271.183 56.2362 271.419 56.7407C271.655 57.2453 272.037 57.4976 272.566 57.4976C273.266 57.4976 273.775 57.1476 274.092 56.4478C274.418 55.7479 274.581 54.5719 274.581 52.9199V46.4014H277.864V60H275.264ZM285.604 60.2441C283.903 60.2441 282.56 59.6419 281.575 58.4375C280.599 57.2249 280.11 55.5119 280.11 53.2983C280.11 51.0522 280.554 49.2985 281.441 48.0371C282.328 46.7757 283.565 46.145 285.152 46.145C286.633 46.145 287.801 46.6862 288.655 47.7686C289.51 48.8428 289.937 50.3524 289.937 52.2974V54.0308H283.406C283.431 55.2433 283.679 56.1466 284.151 56.7407C284.623 57.3267 285.274 57.6196 286.104 57.6196C287.162 57.6196 288.244 57.29 289.351 56.6309V59.3042C288.309 59.9308 287.06 60.2441 285.604 60.2441ZM285.127 48.6475C284.664 48.6475 284.281 48.8957 283.98 49.3921C283.679 49.8804 283.504 50.6413 283.455 51.6748H286.751C286.735 50.682 286.584 49.9292 286.299 49.4165C286.014 48.9038 285.624 48.6475 285.127 48.6475ZM299.385 56.0205C299.385 57.347 298.995 58.3846 298.213 59.1333C297.44 59.8739 296.297 60.2441 294.783 60.2441C293.44 60.2441 292.33 59.9797 291.451 59.4507V56.6309C291.898 56.9401 292.419 57.1965 293.013 57.3999C293.615 57.6034 294.144 57.7051 294.6 57.7051C295.105 57.7051 295.487 57.583 295.748 57.3389C296.016 57.0866 296.15 56.757 296.15 56.3501C296.15 55.9351 296.012 55.5729 295.735 55.2637C295.459 54.9544 294.95 54.576 294.209 54.1284C293.225 53.5425 292.517 52.9199 292.085 52.2607C291.662 51.5934 291.451 50.8081 291.451 49.9048C291.451 48.7492 291.845 47.8337 292.635 47.1582C293.432 46.4827 294.523 46.145 295.906 46.145C297.111 46.145 298.246 46.4624 299.312 47.0972L298.25 49.4287C297.379 48.9567 296.614 48.7207 295.955 48.7207C295.54 48.7207 295.227 48.8306 295.015 49.0503C294.812 49.27 294.71 49.5386 294.71 49.856C294.71 50.2222 294.836 50.5477 295.088 50.8325C295.349 51.1174 295.829 51.4714 296.529 51.8945C297.375 52.4072 297.969 52.8426 298.311 53.2007C298.653 53.5588 298.917 53.9657 299.104 54.4214C299.292 54.8771 299.385 55.4102 299.385 56.0205ZM196.956 94.2441C195.703 94.2441 194.714 93.6257 193.99 92.3887C193.265 91.1517 192.903 89.4305 192.903 87.2251C192.903 85.0116 193.257 83.2782 193.965 82.0249C194.673 80.7716 195.65 80.145 196.895 80.145C197.514 80.145 198.047 80.2996 198.494 80.6089C198.95 80.91 199.369 81.4227 199.751 82.147H199.947C199.849 80.91 199.8 80.0433 199.8 79.5469V75.0059H203.047V94H200.63L200.081 92.23H199.971C199.279 93.5728 198.274 94.2441 196.956 94.2441ZM198.006 91.4976C198.608 91.4976 199.048 91.2249 199.324 90.6797C199.601 90.1263 199.751 89.1253 199.776 87.6768V87.2495C199.776 85.6707 199.633 84.5599 199.349 83.917C199.072 83.2741 198.612 82.9526 197.969 82.9526C197.367 82.9526 196.928 83.3229 196.651 84.0635C196.382 84.7959 196.248 85.866 196.248 87.2739C196.248 88.6818 196.386 89.7397 196.663 90.4478C196.94 91.1476 197.387 91.4976 198.006 91.4976ZM209.102 76.1533L209.273 76.4219C208.866 78.0251 208.15 79.9741 207.125 82.269H204.646C205.167 80.1857 205.578 78.1471 205.879 76.1533H209.102ZM214.18 94H210.933V80.4014H214.18V94ZM210.799 76.8491C210.799 76.312 210.953 75.8888 211.263 75.5796C211.58 75.2622 212.02 75.1035 212.581 75.1035C213.11 75.1035 213.533 75.2622 213.851 75.5796C214.168 75.8888 214.327 76.312 214.327 76.8491C214.327 77.4025 214.164 77.8338 213.838 78.1431C213.513 78.4442 213.094 78.5947 212.581 78.5947C212.044 78.5947 211.613 78.4442 211.287 78.1431C210.962 77.8338 210.799 77.4025 210.799 76.8491ZM223.738 94V85.8945C223.738 84.9098 223.62 84.1652 223.384 83.6606C223.148 83.1561 222.766 82.9038 222.237 82.9038C221.537 82.9038 221.024 83.2537 220.699 83.9536C220.373 84.6453 220.21 85.8172 220.21 87.4692V94H216.963V80.4014H219.539L219.93 82.147H220.137C220.43 81.5203 220.849 81.0321 221.395 80.6821C221.94 80.3241 222.579 80.145 223.311 80.145C224.548 80.145 225.472 80.5682 226.082 81.4146C226.701 82.2609 227.01 83.4979 227.01 85.1255V94H223.738ZM234.358 91.4976C234.814 91.4976 235.306 91.3836 235.835 91.1558V93.6948C235.306 94.061 234.513 94.2441 233.455 94.2441C232.275 94.2441 231.4 93.8942 230.831 93.1943C230.261 92.4863 229.976 91.4284 229.976 90.0205V82.9771H228.658V81.5244L230.354 80.3525L231.185 77.4717H233.26V80.4014H235.726V82.9771H233.26V90.1304C233.26 91.0418 233.626 91.4976 234.358 91.4976ZM242.757 94.2441C241.056 94.2441 239.713 93.6419 238.729 92.4375C237.752 91.2249 237.264 89.5119 237.264 87.2983C237.264 85.0522 237.707 83.2985 238.594 82.0371C239.481 80.7757 240.718 80.145 242.305 80.145C243.786 80.145 244.954 80.6862 245.809 81.7686C246.663 82.8428 247.09 84.3524 247.09 86.2974V88.0308H240.56C240.584 89.2433 240.832 90.1466 241.304 90.7407C241.776 91.3267 242.427 91.6196 243.257 91.6196C244.315 91.6196 245.398 91.29 246.504 90.6309V93.3042C245.463 93.9308 244.214 94.2441 242.757 94.2441ZM242.281 82.6475C241.817 82.6475 241.434 82.8957 241.133 83.3921C240.832 83.8804 240.657 84.6413 240.608 85.6748H243.904C243.888 84.682 243.737 83.9292 243.453 83.4165C243.168 82.9038 242.777 82.6475 242.281 82.6475ZM240.608 78.8511V78.5215C240.942 78.0902 241.329 77.4757 241.768 76.6782C242.208 75.8807 242.521 75.2703 242.708 74.8472H246.59V75.1035C246.395 75.4535 245.91 76.019 245.137 76.8003C244.364 77.5734 243.615 78.257 242.891 78.8511H240.608ZM259.029 80.4258V82.3301L257.405 82.6963C257.723 83.266 257.881 83.9821 257.881 84.8447C257.881 86.2852 257.491 87.4123 256.709 88.2261C255.928 89.0399 254.838 89.4468 253.438 89.4468C253.031 89.4468 252.73 89.4142 252.535 89.3491C252.38 89.4875 252.234 89.6421 252.095 89.813C251.957 89.9839 251.888 90.1955 251.888 90.4478C251.888 91.0174 252.38 91.3022 253.365 91.3022H255.33C256.486 91.3022 257.373 91.6156 257.991 92.2422C258.618 92.8607 258.931 93.7965 258.931 95.0498C258.931 96.6286 258.402 97.8493 257.344 98.7119C256.286 99.5745 254.764 100.006 252.779 100.006C251.273 100.006 250.114 99.6763 249.3 99.0171C248.486 98.366 248.079 97.4342 248.079 96.2217C248.079 95.4648 248.311 94.7975 248.775 94.2197C249.239 93.6501 249.882 93.235 250.704 92.9746C250.289 92.8118 249.947 92.5596 249.678 92.2178C249.418 91.876 249.288 91.4772 249.288 91.0215C249.288 90.7448 249.328 90.4966 249.41 90.2769C249.491 90.049 249.605 89.8374 249.751 89.6421C249.906 89.4386 250.215 89.1416 250.679 88.751C250.118 88.4092 249.674 87.8843 249.349 87.1763C249.023 86.4683 248.86 85.6829 248.86 84.8203C248.86 83.3311 249.251 82.1795 250.032 81.3657C250.813 80.5519 251.932 80.145 253.389 80.145C253.666 80.145 253.983 80.1776 254.341 80.2427C254.699 80.2996 254.972 80.3607 255.159 80.4258H259.029ZM251.033 95.9775C251.033 96.5146 251.2 96.9256 251.534 97.2104C251.875 97.5034 252.36 97.6499 252.986 97.6499C253.971 97.6499 254.708 97.4627 255.196 97.0884C255.692 96.714 255.94 96.2013 255.94 95.5503C255.94 95.0376 255.806 94.6755 255.538 94.4639C255.277 94.2523 254.785 94.1465 254.061 94.1465H252.486C252.046 94.1465 251.692 94.3092 251.424 94.6348C251.163 94.9684 251.033 95.416 251.033 95.9775ZM252.034 84.8447C252.034 86.4479 252.486 87.2495 253.389 87.2495C254.268 87.2495 254.708 86.4398 254.708 84.8203C254.708 83.1602 254.268 82.3301 253.389 82.3301C252.486 82.3301 252.034 83.1683 252.034 84.8447ZM266.463 80.145C266.862 80.145 267.252 80.2061 267.635 80.3281L267.256 83.4775C267.028 83.3962 266.731 83.3555 266.365 83.3555C265.576 83.3555 264.97 83.6688 264.546 84.2954C264.123 84.9139 263.912 85.8172 263.912 87.0054V94H260.665V80.4014H263.338L263.704 82.5254H263.814C264.172 81.6709 264.563 81.0605 264.986 80.6943C265.409 80.3281 265.901 80.145 266.463 80.145ZM275.752 94L275.105 92.1445H275.032C274.552 92.9421 274.056 93.4914 273.543 93.7925C273.03 94.0936 272.383 94.2441 271.602 94.2441C270.601 94.2441 269.812 93.8698 269.234 93.1211C268.664 92.3724 268.379 91.3307 268.379 89.9961C268.379 88.5638 268.77 87.5018 269.551 86.8101C270.341 86.1102 271.517 85.7236 273.079 85.6504L274.886 85.5771V84.6006C274.886 83.3311 274.336 82.6963 273.238 82.6963C272.424 82.6963 271.488 83.0137 270.43 83.6484L269.307 81.4023C270.658 80.5479 272.127 80.1206 273.714 80.1206C275.154 80.1206 276.249 80.5356 276.998 81.3657C277.754 82.1877 278.133 83.3555 278.133 84.8691V94H275.752ZM272.933 91.7051C273.527 91.7051 273.999 91.4406 274.349 90.9116C274.707 90.3745 274.886 89.6624 274.886 88.7754V87.6279L273.885 87.6768C273.144 87.7174 272.599 87.929 272.249 88.3115C271.907 88.694 271.736 89.2637 271.736 90.0205C271.736 91.1436 272.135 91.7051 272.933 91.7051ZM285.481 91.4976C285.937 91.4976 286.43 91.3836 286.958 91.1558V93.6948C286.43 94.061 285.636 94.2441 284.578 94.2441C283.398 94.2441 282.523 93.8942 281.954 93.1943C281.384 92.4863 281.099 91.4284 281.099 90.0205V82.9771H279.781V81.5244L281.478 80.3525L282.308 77.4717H284.383V80.4014H286.849V82.9771H284.383V90.1304C284.383 91.0418 284.749 91.4976 285.481 91.4976ZM292.134 94H288.887V80.4014H292.134V94ZM288.753 76.8491C288.753 76.312 288.908 75.8888 289.217 75.5796C289.534 75.2622 289.974 75.1035 290.535 75.1035C291.064 75.1035 291.487 75.2622 291.805 75.5796C292.122 75.8888 292.281 76.312 292.281 76.8491C292.281 77.4025 292.118 77.8338 291.792 78.1431C291.467 78.4442 291.048 78.5947 290.535 78.5947C289.998 78.5947 289.567 78.4442 289.241 78.1431C288.916 77.8338 288.753 77.4025 288.753 76.8491ZM304.988 87.1763C304.988 89.4061 304.516 91.1436 303.572 92.3887C302.628 93.6257 301.334 94.2441 299.69 94.2441C298.649 94.2441 297.729 93.9593 296.932 93.3896C296.134 92.82 295.52 92.0021 295.088 90.936C294.657 89.8618 294.441 88.6086 294.441 87.1763C294.441 84.9709 294.909 83.2497 295.845 82.0127C296.781 80.7676 298.079 80.145 299.739 80.145C301.342 80.145 302.616 80.7798 303.56 82.0493C304.512 83.3107 304.988 85.0197 304.988 87.1763ZM297.762 87.1763C297.762 88.5923 297.916 89.6624 298.226 90.3867C298.535 91.111 299.031 91.4731 299.715 91.4731C301.017 91.4731 301.668 90.0409 301.668 87.1763C301.668 85.7521 301.509 84.6901 301.192 83.9902C300.883 83.2822 300.39 82.9282 299.715 82.9282C299.031 82.9282 298.535 83.2822 298.226 83.9902C297.916 84.6901 297.762 85.7521 297.762 87.1763ZM314.046 94V85.8945C314.046 84.9098 313.928 84.1652 313.692 83.6606C313.456 83.1561 313.073 82.9038 312.544 82.9038C311.845 82.9038 311.332 83.2537 311.006 83.9536C310.681 84.6453 310.518 85.8172 310.518 87.4692V94H307.271V80.4014H309.847L310.237 82.147H310.445C310.738 81.5203 311.157 81.0321 311.702 80.6821C312.247 80.3241 312.886 80.145 313.619 80.145C314.856 80.145 315.779 80.5682 316.39 81.4146C317.008 82.2609 317.317 83.4979 317.317 85.1255V94H314.046ZM206.88 128V119.895C206.88 117.901 206.388 116.904 205.403 116.904C204.687 116.904 204.174 117.262 203.865 117.978C203.556 118.686 203.401 119.825 203.401 121.396V128H200.13V119.895C200.13 117.901 199.629 116.904 198.628 116.904C197.929 116.904 197.42 117.258 197.103 117.966C196.785 118.674 196.626 119.842 196.626 121.469V128H193.379V114.401H195.955L196.346 116.147H196.553C196.879 115.455 197.322 114.951 197.884 114.633C198.453 114.308 199.06 114.145 199.703 114.145C201.363 114.145 202.47 114.93 203.023 116.501H203.145C203.837 114.93 204.948 114.145 206.478 114.145C207.682 114.145 208.593 114.568 209.212 115.415C209.839 116.261 210.152 117.498 210.152 119.125V128H206.88ZM220.137 128L219.734 126.254H219.563C219.262 126.873 218.831 127.361 218.27 127.719C217.716 128.069 217.081 128.244 216.365 128.244C215.145 128.244 214.221 127.829 213.594 126.999C212.968 126.169 212.654 124.928 212.654 123.276V114.401H215.938V122.495C215.938 123.487 216.056 124.236 216.292 124.741C216.528 125.245 216.91 125.498 217.439 125.498C218.139 125.498 218.648 125.148 218.965 124.448C219.291 123.748 219.454 122.572 219.454 120.92V114.401H222.737V128H220.137ZM228.707 128H225.459V109.006H228.707V128ZM236.165 125.498C236.621 125.498 237.113 125.384 237.642 125.156V127.695C237.113 128.061 236.32 128.244 235.262 128.244C234.082 128.244 233.207 127.894 232.637 127.194C232.068 126.486 231.783 125.428 231.783 124.021V116.977H230.464V115.524L232.161 114.353L232.991 111.472H235.066V114.401H237.532V116.977H235.066V124.13C235.066 125.042 235.433 125.498 236.165 125.498ZM242.818 128H239.571V114.401H242.818V128ZM239.437 110.849C239.437 110.312 239.591 109.889 239.9 109.58C240.218 109.262 240.657 109.104 241.219 109.104C241.748 109.104 242.171 109.262 242.488 109.58C242.806 109.889 242.964 110.312 242.964 110.849C242.964 111.403 242.802 111.834 242.476 112.143C242.151 112.444 241.731 112.595 241.219 112.595C240.682 112.595 240.25 112.444 239.925 112.143C239.599 111.834 239.437 111.403 239.437 110.849ZM259.102 128V119.895C259.102 117.901 258.61 116.904 257.625 116.904C256.909 116.904 256.396 117.262 256.087 117.978C255.778 118.686 255.623 119.825 255.623 121.396V128H252.352V119.895C252.352 117.901 251.851 116.904 250.85 116.904C250.15 116.904 249.642 117.258 249.324 117.966C249.007 118.674 248.848 119.842 248.848 121.469V128H245.601V114.401H248.177L248.567 116.147H248.775C249.1 115.455 249.544 114.951 250.105 114.633C250.675 114.308 251.281 114.145 251.924 114.145C253.584 114.145 254.691 114.93 255.245 116.501H255.367C256.058 114.93 257.169 114.145 258.699 114.145C259.904 114.145 260.815 114.568 261.434 115.415C262.06 116.261 262.374 117.498 262.374 119.125V128H259.102ZM270.027 128.244C268.326 128.244 266.984 127.642 265.999 126.438C265.022 125.225 264.534 123.512 264.534 121.298C264.534 119.052 264.978 117.299 265.865 116.037C266.752 114.776 267.989 114.145 269.576 114.145C271.057 114.145 272.225 114.686 273.079 115.769C273.934 116.843 274.361 118.352 274.361 120.297V122.031H267.83C267.854 123.243 268.103 124.147 268.575 124.741C269.047 125.327 269.698 125.62 270.528 125.62C271.586 125.62 272.668 125.29 273.775 124.631V127.304C272.733 127.931 271.484 128.244 270.027 128.244ZM269.551 116.647C269.087 116.647 268.705 116.896 268.404 117.392C268.103 117.88 267.928 118.641 267.879 119.675H271.175C271.159 118.682 271.008 117.929 270.723 117.417C270.438 116.904 270.048 116.647 269.551 116.647ZM267.879 112.851V112.521C268.213 112.09 268.599 111.476 269.039 110.678C269.478 109.881 269.791 109.27 269.979 108.847H273.86V109.104C273.665 109.453 273.181 110.019 272.408 110.8C271.635 111.573 270.886 112.257 270.162 112.851H267.879ZM280.086 128.244C278.833 128.244 277.844 127.626 277.12 126.389C276.395 125.152 276.033 123.431 276.033 121.225C276.033 119.012 276.387 117.278 277.095 116.025C277.803 114.772 278.78 114.145 280.025 114.145C280.643 114.145 281.176 114.3 281.624 114.609C282.08 114.91 282.499 115.423 282.881 116.147H283.077C282.979 114.91 282.93 114.043 282.93 113.547V109.006H286.177V128H283.76L283.211 126.23H283.101C282.409 127.573 281.404 128.244 280.086 128.244ZM281.136 125.498C281.738 125.498 282.177 125.225 282.454 124.68C282.731 124.126 282.881 123.125 282.906 121.677V121.25C282.906 119.671 282.763 118.56 282.479 117.917C282.202 117.274 281.742 116.953 281.099 116.953C280.497 116.953 280.057 117.323 279.781 118.063C279.512 118.796 279.378 119.866 279.378 121.274C279.378 122.682 279.516 123.74 279.793 124.448C280.07 125.148 280.517 125.498 281.136 125.498ZM292.183 128H288.936V114.401H292.183V128ZM288.802 110.849C288.802 110.312 288.956 109.889 289.266 109.58C289.583 109.262 290.022 109.104 290.584 109.104C291.113 109.104 291.536 109.262 291.854 109.58C292.171 109.889 292.33 110.312 292.33 110.849C292.33 111.403 292.167 111.834 291.841 112.143C291.516 112.444 291.097 112.595 290.584 112.595C290.047 112.595 289.616 112.444 289.29 112.143C288.965 111.834 288.802 111.403 288.802 110.849ZM301.631 128L300.984 126.145H300.911C300.431 126.942 299.935 127.491 299.422 127.792C298.909 128.094 298.262 128.244 297.481 128.244C296.48 128.244 295.691 127.87 295.113 127.121C294.543 126.372 294.258 125.331 294.258 123.996C294.258 122.564 294.649 121.502 295.43 120.81C296.22 120.11 297.396 119.724 298.958 119.65L300.765 119.577V118.601C300.765 117.331 300.215 116.696 299.117 116.696C298.303 116.696 297.367 117.014 296.309 117.648L295.186 115.402C296.537 114.548 298.006 114.121 299.593 114.121C301.033 114.121 302.128 114.536 302.876 115.366C303.633 116.188 304.012 117.355 304.012 118.869V128H301.631ZM298.812 125.705C299.406 125.705 299.878 125.441 300.228 124.912C300.586 124.375 300.765 123.662 300.765 122.775V121.628L299.764 121.677C299.023 121.717 298.478 121.929 298.128 122.312C297.786 122.694 297.615 123.264 297.615 124.021C297.615 125.144 298.014 125.705 298.812 125.705Z" fill="white"/>
<path d="M185 38V133.5" stroke="white" stroke-width="4"/>
</svg>
